<svg xmlns="http://www.w3.org/2000/svg" viewBox="0 0 960 540">
  <text x="27" y="263" dy=".76em" text-anchor="middle" font-family="sans-serif" font-size="9.68" transform="rotate(270 27 263)">
Total sample time (ms)
</text>
  <text x="510" y="513" dy="-.5ex" text-anchor="middle" font-family="sans-serif" font-size="9.68">
Iterations
</text>
  <path opacity=".2" stroke="#000" d="M116 472V53m124 419V53m123 419V53m124 419V53m123 419V53m124 419V53m123 419V53M87 467h845M87 415h845M87 363h845M87 311h845M87 259h845M87 207h845M87 155h845M87 103h845"/>
  <path fill="none" stroke="#000" d="M86 53v419"/>
  <text x="77" y="467" dy=".5ex" text-anchor="end" font-family="sans-serif" font-size="9.68">
100.0
</text>
  <path fill="none" stroke="#000" d="M81 467h5"/>
  <text x="77" y="415" dy=".5ex" text-anchor="end" font-family="sans-serif" font-size="9.68">
200.0
</text>
  <path fill="none" stroke="#000" d="M81 415h5"/>
  <text x="77" y="363" dy=".5ex" text-anchor="end" font-family="sans-serif" font-size="9.68">
300.0
</text>
  <path fill="none" stroke="#000" d="M81 363h5"/>
  <text x="77" y="311" dy=".5ex" text-anchor="end" font-family="sans-serif" font-size="9.68">
400.0
</text>
  <path fill="none" stroke="#000" d="M81 311h5"/>
  <text x="77" y="259" dy=".5ex" text-anchor="end" font-family="sans-serif" font-size="9.68">
500.0
</text>
  <path fill="none" stroke="#000" d="M81 259h5"/>
  <text x="77" y="207" dy=".5ex" text-anchor="end" font-family="sans-serif" font-size="9.68">
600.0
</text>
  <path fill="none" stroke="#000" d="M81 207h5"/>
  <text x="77" y="155" dy=".5ex" text-anchor="end" font-family="sans-serif" font-size="9.68">
700.0
</text>
  <path fill="none" stroke="#000" d="M81 155h5"/>
  <text x="77" y="103" dy=".5ex" text-anchor="end" font-family="sans-serif" font-size="9.68">
800.0
</text>
  <path fill="none" stroke="#000" d="M81 103h5m1 370h845"/>
  <text x="116" y="483" dy=".76em" text-anchor="middle" font-family="sans-serif" font-size="9.68">
50
</text>
  <path fill="none" stroke="#000" d="M116 473v5"/>
  <text x="240" y="483" dy=".76em" text-anchor="middle" font-family="sans-serif" font-size="9.68">
100
</text>
  <path fill="none" stroke="#000" d="M240 473v5"/>
  <text x="363" y="483" dy=".76em" text-anchor="middle" font-family="sans-serif" font-size="9.68">
150
</text>
  <path fill="none" stroke="#000" d="M363 473v5"/>
  <text x="487" y="483" dy=".76em" text-anchor="middle" font-family="sans-serif" font-size="9.68">
200
</text>
  <path fill="none" stroke="#000" d="M487 473v5"/>
  <text x="610" y="483" dy=".76em" text-anchor="middle" font-family="sans-serif" font-size="9.68">
250
</text>
  <path fill="none" stroke="#000" d="M610 473v5"/>
  <text x="734" y="483" dy=".76em" text-anchor="middle" font-family="sans-serif" font-size="9.68">
300
</text>
  <path fill="none" stroke="#000" d="M734 473v5"/>
  <text x="857" y="483" dy=".76em" text-anchor="middle" font-family="sans-serif" font-size="9.68">
350
</text>
  <path fill="none" stroke="#000" d="M857 473v5"/>
  <circle cx="87" cy="472" r="3" fill="#1F78B4"/>
  <circle cx="180" cy="426" r="3" fill="#1F78B4"/>
  <circle cx="274" cy="380" r="3" fill="#1F78B4"/>
  <circle cx="368" cy="332" r="3" fill="#1F78B4"/>
  <circle cx="462" cy="282" r="3" fill="#1F78B4"/>
  <circle cx="556" cy="236" r="3" fill="#1F78B4"/>
  <circle cx="650" cy="184" r="3" fill="#1F78B4"/>
  <circle cx="744" cy="136" r="3" fill="#1F78B4"/>
  <circle cx="838" cy="94" r="3" fill="#1F78B4"/>
  <circle cx="932" cy="53" r="3" fill="#1F78B4"/>
  <path fill="none" stroke="#1F78B4" d="M87 473 932 53"/>
  <path opacity=".25" fill="#1F78B4" d="M87 473 932 53z"/>
  <text x="132" y="68" dy=".76em" font-family="sans-serif" font-size="9.68">
Sample
</text>
  <text x="132" y="83" dy=".76em" font-family="sans-serif" font-size="9.68">
Linear regression
</text>
  <text x="132" y="98" dy=".76em" font-family="sans-serif" font-size="9.68">
Confidence interval
</text>
  <circle cx="112" cy="73" r="3" fill="#1F78B4"/>
  <path fill="none" stroke="#1F78B4" stroke-width="2" d="M102 88h20"/>
  <path opacity=".25" fill="#1F78B4" d="M102 98h20v10h-20z"/>
</svg>
