<svg xmlns="http://www.w3.org/2000/svg" viewBox="0 0 960 540">
  <text x="27" y="263" dy=".76em" text-anchor="middle" font-family="sans-serif" font-size="9.68" transform="rotate(270 27 263)">
Average Iteration Time (ms)
</text>
  <path opacity=".2" stroke="#000" d="M87 472V53m84 419V53m85 419V53m84 419V53m85 419V53m84 419V53m85 419V53m84 419V53m85 419V53m84 419V53m85 419V53M87 430h845M87 383h845M87 336h845M87 289h845M87 242h845M87 195h845M87 148h845M87 101h845M87 54h845"/>
  <path fill="none" stroke="#000" d="M86 53v419"/>
  <text x="77" y="430" dy=".5ex" text-anchor="end" font-family="sans-serif" font-size="9.68">
499.0
</text>
  <path fill="none" stroke="#000" d="M81 430h5"/>
  <text x="77" y="383" dy=".5ex" text-anchor="end" font-family="sans-serif" font-size="9.68">
500.0
</text>
  <path fill="none" stroke="#000" d="M81 383h5"/>
  <text x="77" y="336" dy=".5ex" text-anchor="end" font-family="sans-serif" font-size="9.68">
501.0
</text>
  <path fill="none" stroke="#000" d="M81 336h5"/>
  <text x="77" y="289" dy=".5ex" text-anchor="end" font-family="sans-serif" font-size="9.68">
502.0
</text>
  <path fill="none" stroke="#000" d="M81 289h5"/>
  <text x="77" y="242" dy=".5ex" text-anchor="end" font-family="sans-serif" font-size="9.68">
503.0
</text>
  <path fill="none" stroke="#000" d="M81 242h5"/>
  <text x="77" y="195" dy=".5ex" text-anchor="end" font-family="sans-serif" font-size="9.68">
504.0
</text>
  <path fill="none" stroke="#000" d="M81 195h5"/>
  <text x="77" y="148" dy=".5ex" text-anchor="end" font-family="sans-serif" font-size="9.68">
505.0
</text>
  <path fill="none" stroke="#000" d="M81 148h5"/>
  <text x="77" y="101" dy=".5ex" text-anchor="end" font-family="sans-serif" font-size="9.68">
506.0
</text>
  <path fill="none" stroke="#000" d="M81 101h5"/>
  <text x="77" y="54" dy=".5ex" text-anchor="end" font-family="sans-serif" font-size="9.68">
507.0
</text>
  <path fill="none" stroke="#000" d="M81 54h5m1 419h845"/>
  <text x="87" y="483" dy=".76em" text-anchor="middle" font-family="sans-serif" font-size="9.68">
1
</text>
  <path fill="none" stroke="#000" d="M87 473v5"/>
  <text x="171" y="483" dy=".76em" text-anchor="middle" font-family="sans-serif" font-size="9.68">
2
</text>
  <path fill="none" stroke="#000" d="M171 473v5"/>
  <text x="256" y="483" dy=".76em" text-anchor="middle" font-family="sans-serif" font-size="9.68">
3
</text>
  <path fill="none" stroke="#000" d="M256 473v5"/>
  <text x="340" y="483" dy=".76em" text-anchor="middle" font-family="sans-serif" font-size="9.68">
4
</text>
  <path fill="none" stroke="#000" d="M340 473v5"/>
  <text x="425" y="483" dy=".76em" text-anchor="middle" font-family="sans-serif" font-size="9.68">
5
</text>
  <path fill="none" stroke="#000" d="M425 473v5"/>
  <text x="509" y="483" dy=".76em" text-anchor="middle" font-family="sans-serif" font-size="9.68">
6
</text>
  <path fill="none" stroke="#000" d="M509 473v5"/>
  <text x="594" y="483" dy=".76em" text-anchor="middle" font-family="sans-serif" font-size="9.68">
7
</text>
  <path fill="none" stroke="#000" d="M594 473v5"/>
  <text x="678" y="483" dy=".76em" text-anchor="middle" font-family="sans-serif" font-size="9.68">
8
</text>
  <path fill="none" stroke="#000" d="M678 473v5"/>
  <text x="763" y="483" dy=".76em" text-anchor="middle" font-family="sans-serif" font-size="9.68">
9
</text>
  <path fill="none" stroke="#000" d="M763 473v5"/>
  <text x="847" y="483" dy=".76em" text-anchor="middle" font-family="sans-serif" font-size="9.68">
10
</text>
  <path fill="none" stroke="#000" d="M847 473v5"/>
  <text x="932" y="483" dy=".76em" text-anchor="middle" font-family="sans-serif" font-size="9.68">
11
</text>
  <path fill="none" stroke="#000" d="M932 473v5"/>
  <circle cx="87" cy="53" r="3" fill="#1F78B4"/>
  <circle cx="171" cy="199" r="3" fill="#1F78B4"/>
  <circle cx="256" cy="466" r="3" fill="#1F78B4"/>
  <circle cx="340" cy="355" r="3" fill="#1F78B4"/>
  <circle cx="425" cy="472" r="3" fill="#1F78B4"/>
  <circle cx="509" cy="358" r="3" fill="#1F78B4"/>
  <circle cx="594" cy="66" r="3" fill="#1F78B4"/>
  <circle cx="678" cy="89" r="3" fill="#1F78B4"/>
  <circle cx="763" cy="323" r="3" fill="#1F78B4"/>
  <circle cx="847" cy="470" r="3" fill="#1F78B4"/>
  <text x="132" y="68" dy=".76em" font-family="sans-serif" font-size="9.68">
Sample
</text>
  <circle cx="112" cy="73" r="3" fill="#1F78B4"/>
</svg>
