<?xml version="1.0" encoding="UTF-8" standalone="no"?>
<!-- Created with Inkscape (http://www.inkscape.org/) -->

<svg
   xmlns:dc="http://purl.org/dc/elements/1.1/"
   xmlns:cc="http://creativecommons.org/ns#"
   xmlns:rdf="http://www.w3.org/1999/02/22-rdf-syntax-ns#"
   xmlns:svg="http://www.w3.org/2000/svg"
   xmlns="http://www.w3.org/2000/svg"
   version="1.1"
   width="168.89223"
   height="44.9608"
   viewBox="0 0 168.89223 44.9608"
   id="svg2"
   xml:space="preserve"><metadata
     id="metadata8"><rdf:RDF><cc:Work
         rdf:about=""><dc:format>image/svg+xml</dc:format><dc:type
           rdf:resource="http://purl.org/dc/dcmitype/StillImage" /><dc:title></dc:title></cc:Work></rdf:RDF></metadata><defs
     id="defs6"><clipPath
       id="clipPath18"><path
         d="M 0,14668.7 0,0 l 2682.69,0 0,14668.7 -2682.69,0 z"
         id="path20" /></clipPath><clipPath
       id="clipPath1222"><path
         d="M 2668.77,0 0,0 l 0,1371.34 2668.77,0 0,-1371.34"
         id="path1224" /></clipPath></defs><path
     d="m 90.01295,19.472495 c 0,-0.5998 0.18267,-1.0382 0.40187,-1.3 0.12178,-0.137 0.45667,-0.4597 0.89507,-0.3501 0.19181,0.052 0.45668,0.3744 0.45668,0.9498 0,0.1644 -0.0244,0.3654 -0.0792,0.5754 -0.1644,0.6272 -0.60585,1.2635 -1.2117,1.8876 -0.31967,-0.6728 -0.46276,-1.2726 -0.46276,-1.7627 z M 161.88083,7.7846951 c -7.82431,-5.888 -24.24316,-10.2751 -44.79641,-3.2484 -0.29836,0.1004 -0.45667,0.4262 -0.35316,0.7245 0.10351,0.3015 0.43232,0.475 0.72154,0.3623 20.07527,-8.2261 36.14401,-2.6487 43.74302,3.0628 4.4358,3.3519999 7.24889,7.7237999 7.03274,12.1382999 -0.6637,13.487 -18.87271,19.5364 -35.05105,19.5364 -13.9376,0 -27.73212,-4.5758 -36.91121,-12.2114 -2.79178,-2.3381 -4.83158,-4.5271 -5.65968,-6.2138 1.08383,-0.8859 1.79929,-1.8875 1.98195,-2.8739 0.0518,-0.2893 0.0761,-0.5633 0.0761,-0.8129 0,-1.026 -0.39274,-1.8145 -1.07166,-2.0733 -0.76112,-0.2892 -1.56181,0.061 -2.03371,0.8738 -0.25269,0.4353 -0.43536,1.0868 -0.43536,1.9119 0,0.8129 0.25269,1.7871 0.92552,2.8983 -2.21942,2.3017 -6.1681,4.6642 -13.76711,4.6642 -11.06667,0 -19.74951,-4.0614 -28.10051,-7.9248 -3.42503,-1.577 -6.96576,-3.2119 -10.71959,-4.5637 -17.47834,-6.2624999 -31.98221,-3.1358 -32.1253,-3.0992 -0.3075,0.064 -0.4993,0.3744 -0.43232,0.6758 0.067,0.3106 0.37447,0.4993 0.68196,0.4354 0.14005,-0.036 12.39406,-4.0217999 29.54968,2.125 3.70512,1.3396 10.04676,4.6124 13.44744,6.1773 8.09831,3.7477 15.5938,6.6247 26.90403,6.8987 8.86551,0.2253 12.25097,-2.3868 14.77788,-4.7737 0.94988,1.7749 3.5803,4.6489 6.27162,6.8988 9.37394,7.8121 22.04809,12.662 36.24447,12.662 16.70199,0 35.39507,-7.0236 36.0953,-21.2627 0.23442,-4.8011 -2.24682,-9.4256 -6.9962,-12.9876999"
     id="path678"
     style="fill:#657b83;fill-opacity:1;fill-rule:nonzero;stroke:none" /><path
     d="m 45.44183,9.8122951 c 0.11874,-0.088 10.49735,-9.25209996 32.10399,-9.25209996 24.01178,0 41.74584,10.89919986 42.41563,20.46189986 0.5754,8.2901 -6.04937,11.9008 -6.30511,12.05 -0.27096,0.1644 -0.35925,0.5145 -0.20093,0.7764 0.15831,0.274 0.50538,0.3623 0.77634,0.2131 0.07,-0.049 6.84398,-4.1009 6.21681,-13.1126 C 119.74529,10.874895 103.71917,-4.8620536e-6 79.04979,-4.8620536e-6 57.04128,-4.8620536e-6 44.8847,8.7984951 44.76292,8.8989951 c -0.24965,0.1857 -0.30445,0.5358 -0.11569,0.8007 0.18571,0.2496 0.54496,0.2984 0.7946,0.1126"
     id="path680"
     style="fill:#657b83;fill-opacity:1;fill-rule:nonzero;stroke:none" /><path
     d="M 37.50793,31.425095 C 13.77016,21.460495 0,24.072695 0,24.072695 c 0,0 11.63294,-0.475 23.74082,3.7873 12.10483,4.2744 35.13019,17.1008 54.12163,17.1008 18.99143,0 29.6745,-7.1241 29.6745,-7.1241 -27.29981,11.1611 -47.26852,3.1511 -70.02902,-6.4116"
     id="path682"
     style="fill:#657b83;fill-opacity:1;fill-rule:nonzero;stroke:none" /></svg>