<svg xmlns="http://www.w3.org/2000/svg" width="960" height="540" viewBox="0 0 960 540"><text x="480" y="32" dy=".76em" font-family="sans-serif" font-size="16.129" text-anchor="middle">
RoomList/Create/1000 rooms × 1000 events
</text><text x="27" y="263" dy=".76em" font-family="sans-serif" font-size="9.677" text-anchor="middle" transform="rotate(270 27 263)">
Average Iteration Time (ms)
</text><path stroke="#000" d="M163 472V53M247 472V53M332 472V53M416 472V53M501 472V53M585 472V53M670 472V53M754 472V53M839 472V53M923 472V53M87 440h845M87 373h845M87 306h845M87 238h845M87 171h845M87 104h845" opacity=".2"/><path fill="none" stroke="#000" d="M86 53v419"/><text x="77" y="440" dy=".5ex" font-family="sans-serif" font-size="9.677" text-anchor="end">
52.0
</text><path fill="none" stroke="#000" d="M81 440h5"/><text x="77" y="373" dy=".5ex" font-family="sans-serif" font-size="9.677" text-anchor="end">
52.5
</text><path fill="none" stroke="#000" d="M81 373h5"/><text x="77" y="306" dy=".5ex" font-family="sans-serif" font-size="9.677" text-anchor="end">
53.0
</text><path fill="none" stroke="#000" d="M81 306h5"/><text x="77" y="238" dy=".5ex" font-family="sans-serif" font-size="9.677" text-anchor="end">
53.5
</text><path fill="none" stroke="#000" d="M81 238h5"/><text x="77" y="171" dy=".5ex" font-family="sans-serif" font-size="9.677" text-anchor="end">
54.0
</text><path fill="none" stroke="#000" d="M81 171h5"/><text x="77" y="104" dy=".5ex" font-family="sans-serif" font-size="9.677" text-anchor="end">
54.5
</text><path fill="none" stroke="#000" d="M81 104h5M87 473h845"/><text x="163" y="483" dy=".76em" font-family="sans-serif" font-size="9.677" text-anchor="middle">
10
</text><path fill="none" stroke="#000" d="M163 473v5"/><text x="247" y="483" dy=".76em" font-family="sans-serif" font-size="9.677" text-anchor="middle">
20
</text><path fill="none" stroke="#000" d="M247 473v5"/><text x="332" y="483" dy=".76em" font-family="sans-serif" font-size="9.677" text-anchor="middle">
30
</text><path fill="none" stroke="#000" d="M332 473v5"/><text x="416" y="483" dy=".76em" font-family="sans-serif" font-size="9.677" text-anchor="middle">
40
</text><path fill="none" stroke="#000" d="M416 473v5"/><text x="501" y="483" dy=".76em" font-family="sans-serif" font-size="9.677" text-anchor="middle">
50
</text><path fill="none" stroke="#000" d="M501 473v5"/><text x="585" y="483" dy=".76em" font-family="sans-serif" font-size="9.677" text-anchor="middle">
60
</text><path fill="none" stroke="#000" d="M585 473v5"/><text x="670" y="483" dy=".76em" font-family="sans-serif" font-size="9.677" text-anchor="middle">
70
</text><path fill="none" stroke="#000" d="M670 473v5"/><text x="754" y="483" dy=".76em" font-family="sans-serif" font-size="9.677" text-anchor="middle">
80
</text><path fill="none" stroke="#000" d="M754 473v5"/><text x="839" y="483" dy=".76em" font-family="sans-serif" font-size="9.677" text-anchor="middle">
90
</text><path fill="none" stroke="#000" d="M839 473v5"/><text x="923" y="483" dy=".76em" font-family="sans-serif" font-size="9.677" text-anchor="middle">
100
</text><path fill="none" stroke="#000" d="M923 473v5"/><circle cx="87" cy="187" r="3" fill="#1f78b4"/><circle cx="95" cy="265" r="3" fill="#1f78b4"/><circle cx="103" cy="423" r="3" fill="#1f78b4"/><circle cx="112" cy="219" r="3" fill="#1f78b4"/><circle cx="120" cy="205" r="3" fill="#1f78b4"/><circle cx="129" cy="243" r="3" fill="#1f78b4"/><circle cx="137" cy="292" r="3" fill="#1f78b4"/><circle cx="146" cy="383" r="3" fill="#1f78b4"/><circle cx="154" cy="232" r="3" fill="#1f78b4"/><circle cx="163" cy="149" r="3" fill="#1f78b4"/><circle cx="171" cy="114" r="3" fill="#1f78b4"/><circle cx="179" cy="279" r="3" fill="#1f78b4"/><circle cx="188" cy="268" r="3" fill="#1f78b4"/><circle cx="196" cy="234" r="3" fill="#1f78b4"/><circle cx="205" cy="286" r="3" fill="#1f78b4"/><circle cx="213" cy="381" r="3" fill="#1f78b4"/><circle cx="222" cy="267" r="3" fill="#1f78b4"/><circle cx="230" cy="383" r="3" fill="#1f78b4"/><circle cx="239" cy="234" r="3" fill="#1f78b4"/><circle cx="247" cy="211" r="3" fill="#1f78b4"/><circle cx="256" cy="377" r="3" fill="#1f78b4"/><circle cx="264" cy="324" r="3" fill="#1f78b4"/><circle cx="272" cy="226" r="3" fill="#1f78b4"/><circle cx="281" cy="252" r="3" fill="#1f78b4"/><circle cx="289" cy="327" r="3" fill="#1f78b4"/><circle cx="298" cy="243" r="3" fill="#1f78b4"/><circle cx="306" cy="352" r="3" fill="#1f78b4"/><circle cx="315" cy="290" r="3" fill="#1f78b4"/><circle cx="323" cy="290" r="3" fill="#1f78b4"/><circle cx="332" cy="277" r="3" fill="#1f78b4"/><circle cx="340" cy="310" r="3" fill="#1f78b4"/><circle cx="348" cy="302" r="3" fill="#1f78b4"/><circle cx="357" cy="180" r="3" fill="#1f78b4"/><circle cx="365" cy="297" r="3" fill="#1f78b4"/><circle cx="374" cy="466" r="3" fill="#1f78b4"/><circle cx="382" cy="437" r="3" fill="#1f78b4"/><circle cx="391" cy="371" r="3" fill="#1f78b4"/><circle cx="399" cy="328" r="3" fill="#1f78b4"/><circle cx="408" cy="446" r="3" fill="#1f78b4"/><circle cx="416" cy="191" r="3" fill="#1f78b4"/><circle cx="425" cy="302" r="3" fill="#1f78b4"/><circle cx="433" cy="407" r="3" fill="#1f78b4"/><circle cx="441" cy="176" r="3" fill="#1f78b4"/><circle cx="450" cy="294" r="3" fill="#1f78b4"/><circle cx="458" cy="352" r="3" fill="#1f78b4"/><circle cx="467" cy="257" r="3" fill="#1f78b4"/><circle cx="475" cy="336" r="3" fill="#1f78b4"/><circle cx="484" cy="331" r="3" fill="#1f78b4"/><circle cx="492" cy="335" r="3" fill="#1f78b4"/><circle cx="501" cy="225" r="3" fill="#1f78b4"/><circle cx="509" cy="408" r="3" fill="#1f78b4"/><circle cx="517" cy="351" r="3" fill="#1f78b4"/><circle cx="526" cy="116" r="3" fill="#1f78b4"/><circle cx="534" cy="233" r="3" fill="#1f78b4"/><circle cx="543" cy="205" r="3" fill="#1f78b4"/><circle cx="551" cy="343" r="3" fill="#1f78b4"/><circle cx="560" cy="472" r="3" fill="#1f78b4"/><circle cx="568" cy="192" r="3" fill="#1f78b4"/><circle cx="577" cy="397" r="3" fill="#1f78b4"/><circle cx="585" cy="134" r="3" fill="#1f78b4"/><circle cx="594" cy="345" r="3" fill="#1f78b4"/><circle cx="602" cy="224" r="3" fill="#1f78b4"/><circle cx="610" cy="198" r="3" fill="#1f78b4"/><circle cx="619" cy="345" r="3" fill="#1f78b4"/><circle cx="627" cy="247" r="3" fill="#1f78b4"/><circle cx="636" cy="268" r="3" fill="#1f78b4"/><circle cx="644" cy="373" r="3" fill="#1f78b4"/><circle cx="653" cy="271" r="3" fill="#1f78b4"/><circle cx="661" cy="300" r="3" fill="#1f78b4"/><circle cx="670" cy="242" r="3" fill="#1f78b4"/><circle cx="678" cy="419" r="3" fill="#1f78b4"/><circle cx="686" cy="53" r="3" fill="#1f78b4"/><circle cx="695" cy="82" r="3" fill="#1f78b4"/><circle cx="703" cy="140" r="3" fill="#1f78b4"/><circle cx="712" cy="294" r="3" fill="#1f78b4"/><circle cx="720" cy="365" r="3" fill="#1f78b4"/><circle cx="729" cy="288" r="3" fill="#1f78b4"/><circle cx="737" cy="137" r="3" fill="#1f78b4"/><circle cx="746" cy="255" r="3" fill="#1f78b4"/><circle cx="754" cy="277" r="3" fill="#1f78b4"/><circle cx="763" cy="292" r="3" fill="#1f78b4"/><circle cx="771" cy="259" r="3" fill="#1f78b4"/><circle cx="779" cy="218" r="3" fill="#1f78b4"/><circle cx="788" cy="414" r="3" fill="#1f78b4"/><circle cx="796" cy="297" r="3" fill="#1f78b4"/><circle cx="805" cy="379" r="3" fill="#1f78b4"/><circle cx="813" cy="270" r="3" fill="#1f78b4"/><circle cx="822" cy="351" r="3" fill="#1f78b4"/><circle cx="830" cy="322" r="3" fill="#1f78b4"/><circle cx="839" cy="338" r="3" fill="#1f78b4"/><circle cx="847" cy="288" r="3" fill="#1f78b4"/><circle cx="855" cy="209" r="3" fill="#1f78b4"/><circle cx="864" cy="308" r="3" fill="#1f78b4"/><circle cx="872" cy="243" r="3" fill="#1f78b4"/><circle cx="881" cy="311" r="3" fill="#1f78b4"/><circle cx="889" cy="325" r="3" fill="#1f78b4"/><circle cx="898" cy="330" r="3" fill="#1f78b4"/><circle cx="906" cy="358" r="3" fill="#1f78b4"/><circle cx="915" cy="338" r="3" fill="#1f78b4"/><circle cx="923" cy="184" r="3" fill="#1f78b4"/><text x="132" y="68" dy=".76em" font-family="sans-serif" font-size="9.677">
Sample
</text><circle cx="112" cy="73" r="3" fill="#1f78b4"/></svg>